<?xml version="1.0" encoding="UTF-8"?>
<!DOCTYPE svg PUBLIC "-//W3C//DTD SVG 1.1//EN" "http://www.w3.org/Graphics/SVG/1.1/DTD/svg11.dtd">
<!-- Creator: CorelDRAW -->
<svg xmlns="http://www.w3.org/2000/svg" xml:space="preserve" width="100px" height="50px" version="1.1" style="shape-rendering:geometricPrecision; text-rendering:geometricPrecision; image-rendering:optimizeQuality; fill-rule:evenodd; clip-rule:evenodd"
viewBox="0 0 100 50"
 xmlns:xlink="http://www.w3.org/1999/xlink"
 xmlns:xodm="http://www.corel.com/coreldraw/odm/2003">
 <defs>
  <style type="text/css">
   
    .str0 {stroke:#FF6600;stroke-width:0.9;stroke-miterlimit:22.9256}
    .fil0 {fill:#FF6600;fill-rule:nonzero}
      #logo {
        stroke-dasharray: 700;
        stroke-dashoffset: 700;
        animation-name: anmt;
        animation-timing-function: linear;
        animation-duration: 2s;
        animation-fill-mode: forwards;
        animation-delay: 0.3s;
        fill: transparent;
        stroke: orange;
        stroke-width: 1;
         
     }
     @keyframes anmt  {
        0% {
             fill: transparent;
        }
        100% {
            stroke-dashoffset: 500;
            fill: orange;
        }
     }
  </style>
 </defs>
 <g id="Слой_x0020_1">
  <path id="logo" class="fil0 str0" d="M24 30.46l0 4.52 -14.24 0 0 -18.93 14.24 0 0 4.37 -8.54 0 0 2.75 6.89 0 0 4.2 -6.89 0 0 3.09 8.54 0zm7.53 -14.41l0 18.93 -5.44 0 0 -18.93 5.44 0zm12.25 13.85l5.13 0.34c-0.3,1.39 -1.08,2.57 -2.33,3.55 -1.25,0.98 -2.94,1.47 -5.08,1.47 -2.37,0 -4.26,-0.69 -5.68,-2.06 -1.41,-1.37 -2.11,-3.07 -2.11,-5.1 0,-2.11 0.69,-3.89 2.08,-5.34 1.4,-1.45 3.26,-2.17 5.59,-2.17 2.25,0 4.07,0.68 5.46,2.05 1.39,1.36 2.09,3.22 2.09,5.57 0,0.2 -0.01,0.47 -0.02,0.81l-9.42 0c0.02,0.89 0.18,1.55 0.48,1.99 0.29,0.43 0.85,0.64 1.68,0.64 1.21,0 1.92,-0.58 2.13,-1.75zm-0.4 -3.66c-0.01,-0.95 -0.2,-1.58 -0.57,-1.9 -0.37,-0.33 -0.82,-0.49 -1.37,-0.49 -1.3,0 -1.95,0.8 -1.95,2.39l3.89 0zm20.28 -5.37l-5.18 14.11 -4.13 0 -5.24 -14.11 5.68 0 1.99 5.93c0.17,0.49 0.32,0.97 0.44,1.45 0.05,-0.17 0.12,-0.38 0.21,-0.63 0.02,-0.04 0.08,-0.22 0.18,-0.53l2.08 -6.22 3.97 0zm6.89 -5.42l0 4.37 -5.53 0 0 -4.37 5.53 0zm0 5.42l0 14.11 -5.53 0 0 -14.11 5.53 0zm17.32 14.11l-6.22 0 -2.6 -4.49 -2.75 4.49 -4.49 0 4.95 -7.47 -4.35 -6.64 6.16 0 1.46 2.61c0.06,0.13 0.14,0.26 0.23,0.42 0.05,0.07 0.11,0.19 0.2,0.35 0.1,-0.15 0.22,-0.36 0.37,-0.63 0.02,-0.04 0.07,-0.14 0.16,-0.29l1.45 -2.46 4.53 0 -4.14 6.41 5.04 7.7z"/>
 </g>
</svg>
