<svg xmlns="http://www.w3.org/2000/svg" width="100px" height="50px" viewBox="0 0 100 50">
  <style>
    .str0 {stroke:#FF6600;stroke-width:1;stroke-miterlimit:22.9256}
    .fil0 {fill:#FF6600;fill-rule:nonzero}
    
  </style>

  <path id="logo" class="fil0 str0" d="M21.94 31.48l0 5.18 -16.35 0 0 -21.72 16.35 0 0 5.02 -9.81 0 0 3.15 7.92 0 0 4.82 -7.92 0 0 3.55 9.81 0zm8.64 -16.54l0 21.72 -6.25 0 0 -21.72 6.25 0zm14.05 15.89l5.9 0.4c-0.35,1.59 -1.24,2.95 -2.68,4.07 -1.43,1.13 -3.38,1.69 -5.83,1.69 -2.72,0 -4.89,-0.79 -6.51,-2.36 -1.63,-1.58 -2.44,-3.53 -2.44,-5.86 0,-2.42 0.8,-4.46 2.4,-6.12 1.6,-1.67 3.74,-2.5 6.41,-2.5 2.59,0 4.68,0.78 6.27,2.35 1.6,1.57 2.4,3.7 2.4,6.4 0,0.22 -0.01,0.53 -0.02,0.92l-10.81 0c0.02,1.03 0.2,1.79 0.54,2.29 0.34,0.49 0.98,0.74 1.94,0.74 1.38,0 2.19,-0.67 2.43,-2.02zm-0.45 -4.2c-0.01,-1.08 -0.23,-1.81 -0.65,-2.18 -0.43,-0.37 -0.95,-0.55 -1.58,-0.55 -1.49,0 -2.23,0.91 -2.23,2.73l4.46 0zm23.27 -6.15l-5.94 16.18 -4.74 0 -6.01 -16.18 6.52 0 2.28 6.8c0.19,0.56 0.36,1.12 0.51,1.66 0.05,-0.19 0.13,-0.43 0.23,-0.72 0.03,-0.05 0.1,-0.25 0.21,-0.61l2.38 -7.13 4.56 0zm7.92 -6.22l0 5.01 -6.35 0 0 -5.01 6.35 0zm0 6.22l0 16.18 -6.35 0 0 -16.18 6.35 0zm19.87 16.18l-7.14 0 -2.98 -5.14 -3.16 5.14 -5.15 0 5.68 -8.56 -5 -7.62 7.07 0 1.68 2.99c0.07,0.14 0.16,0.3 0.27,0.48 0.05,0.08 0.12,0.22 0.22,0.41 0.12,-0.18 0.26,-0.42 0.43,-0.73 0.02,-0.05 0.08,-0.16 0.18,-0.33l1.67 -2.82 5.19 0 -4.74 7.36 5.78 8.82z"/>
</svg>
